<svg width="16" height="17" viewBox="0 0 16 17" fill="none" xmlns="http://www.w3.org/2000/svg">
<path d="M1.63605 5.793C1.82358 5.60553 2.07788 5.50021 2.34305 5.50021C2.60821 5.50021 2.86252 5.60553 3.05005 5.793L8.00005 10.743L12.95 5.793C13.1387 5.61084 13.3913 5.51005 13.6535 5.51233C13.9156 5.5146 14.1665 5.61977 14.3519 5.80518C14.5373 5.99059 14.6424 6.2414 14.6447 6.5036C14.647 6.7658 14.5462 7.0184 14.364 7.207L8.70705 12.864C8.51952 13.0515 8.26521 13.1568 8.00005 13.1568C7.73488 13.1568 7.48058 13.0515 7.29305 12.864L1.63605 7.207C1.44858 7.01947 1.34326 6.76516 1.34326 6.5C1.34326 6.23484 1.44858 5.98053 1.63605 5.793Z" fill="black"/>
</svg>
