<svg width="25" height="24" viewBox="0 0 25 24" fill="none" xmlns="http://www.w3.org/2000/svg">
<path d="M11.6492 0.984375L10.9358 2.61328C10.5665 2.63579 10.199 2.68229 9.83577 2.7525L8.74442 1.34325L7.56814 1.74319L7.56228 3.53616C7.064 3.79228 6.58648 4.10194 6.13541 4.46334L4.47299 3.71484L3.62188 4.62014L4.47294 6.23437C4.20142 6.62146 3.9628 7.03061 3.75959 7.45753L1.93438 7.50731L1.56378 8.69231L3.03744 9.77784C2.96689 10.2175 2.93244 10.6618 2.93047 11.1065L1.29425 11.9355L1.46563 13.166L3.26155 13.5176C3.36896 13.8935 3.50209 14.2615 3.65999 14.6191L2.47644 16.0884L3.13705 17.1401L4.97689 16.7095C5.09331 16.8465 5.21396 16.9798 5.33867 17.1093C5.59911 17.3788 5.87655 17.6312 6.1693 17.8652L5.81188 19.708L6.88709 20.3291L8.29184 19.1059C8.6938 19.2675 9.10764 19.3977 9.52967 19.4955L9.9882 21.2958L11.2259 21.3969L11.9701 19.6991C12.4843 19.6682 12.9968 19.5913 13.5008 19.4677L14.683 20.8373L15.8358 20.3759L15.8021 19.6815L13.1112 17.6411C12.3278 17.8391 11.5154 17.8921 10.7176 17.8021C9.22911 17.6343 7.79867 16.9621 6.67611 15.8012C4.11027 13.1475 4.18363 8.92608 6.83727 6.36033C8.12258 5.11753 9.77586 4.48706 11.431 4.4692C13.193 4.45017 14.9567 5.12527 16.2797 6.49359C18.4329 8.72072 18.7264 12.071 17.1966 14.6074L18.6952 15.7441C18.8816 15.452 19.0499 15.1487 19.1991 14.8359L21.0111 14.7861L21.3817 13.6011L19.9184 12.523C19.989 12.0797 20.0248 11.6315 20.0253 11.1826L21.6513 10.3565L21.4799 9.126L19.6856 8.77444C19.5346 8.25466 19.3344 7.75044 19.0879 7.26858L20.1571 5.78761L19.4423 4.77244L17.6817 5.28366C17.6595 5.26022 17.6381 5.23645 17.6157 5.21334C17.3385 4.92663 17.0419 4.65937 16.728 4.41347L17.0649 2.67323L15.9896 2.05219L14.6536 3.21534C14.2212 3.0413 13.777 2.90583 13.3265 2.80519L12.8885 1.08544L11.6492 0.984375ZM8.92316 8.17969C8.43828 8.18522 7.95767 8.30428 7.51691 8.52094L9.63659 10.1294C10.2777 10.6158 10.4595 11.5401 9.96753 12.189C9.47544 12.8382 8.53053 12.9358 7.88019 12.4425L5.762 10.8355C5.54511 11.9977 5.95583 13.2291 6.96172 13.9922C7.86383 14.6765 9.02159 14.8046 10.0189 14.4464L10.243 14.3657L10.4319 14.5093L16.7689 19.317L16.9578 19.4605L16.9417 19.6979C16.865 20.7549 17.2975 21.8358 18.2 22.5205C19.2059 23.2837 20.5037 23.3469 21.5647 22.8252L19.4466 21.2183C18.7963 20.7249 18.6365 19.7884 19.1288 19.1397C19.621 18.491 20.5602 18.4176 21.2015 18.9038L23.3196 20.5109C23.536 19.3491 23.127 18.1171 22.1214 17.3541C21.2161 16.667 20.0675 16.5309 19.076 16.8838L18.8533 16.9629L18.6644 16.8194L12.3274 12.0118L12.1385 11.8682L12.1546 11.6324C12.2273 10.583 11.7867 9.51394 10.8816 8.82717C10.2936 8.38111 9.60561 8.17195 8.9232 8.17973L8.92316 8.17969ZM10.9652 12.4102L18.6468 18.2388L18.118 18.9375L10.4349 13.1074L10.9652 12.4102Z" fill="#BA2D0B"/>
</svg>
