<svg width="21" height="20" viewBox="0 0 21 20" fill="none" xmlns="http://www.w3.org/2000/svg">
<g clip-path="url(#clip0_152_70)">
<path d="M10.375 2.50001C15.1997 2.50001 19.125 5.30378 19.125 8.75003C19.125 12.196 15.1997 15 10.375 15L9.85719 15.0019C9.51375 15.0019 9.28906 14.9928 8.93781 14.9403L8.2375 14.8403L7.78813 15.3841C7.58156 15.6338 6.5275 16.4997 5.36406 17.0572C5.60063 16.4316 5.775 15.7484 5.79063 15.0728L5.79688 15.0356V14.1641L5.11594 13.8163C2.89719 12.6813 1.625 10.835 1.625 8.75001C1.625 5.30376 5.55031 2.50001 10.375 2.50001ZM10.375 1.25003C4.85156 1.25003 0.375 4.60814 0.375 8.75001C0.375 11.3294 1.90344 13.5772 4.54656 14.9284C4.54656 14.9444 4.54156 14.9559 4.54156 14.9738C4.54156 16.0944 3.91344 17.3266 3.54531 17.9609H3.54625C3.51719 18.0291 3.5 18.1038 3.5 18.1838C3.5 18.4979 3.75312 18.7501 4.06656 18.7501C4.11375 18.7501 4.18875 18.7404 4.21625 18.7404C4.22281 18.7404 4.22656 18.7404 4.22594 18.7422C6.17906 18.4232 8.32656 16.6975 8.75375 16.1769C9.19281 16.2422 9.48938 16.2519 9.85687 16.2519C10.0119 16.2519 10.1791 16.25 10.375 16.25C15.8975 16.25 20.375 12.8925 20.375 8.75003C20.375 4.60816 15.8975 1.25001 10.375 1.25003Z" fill="#A3A3A3"/>
</g>
<defs>
<clipPath id="clip0_152_70">
<rect width="20" height="20" fill="white" transform="translate(0.375)"/>
</clipPath>
</defs>
</svg>
