<svg width="24" height="24" viewBox="0 0 24 24" fill="none" xmlns="http://www.w3.org/2000/svg">
<path d="M12 20.775C11.7973 20.775 11.5977 20.7347 11.401 20.654C11.2043 20.5733 11.0253 20.454 10.864 20.296L3.70401 13.136C3.54601 12.9747 3.42667 12.7957 3.34601 12.599C3.26534 12.4023 3.22501 12.2027 3.22501 12C3.22501 11.7973 3.26534 11.5967 3.34601 11.398C3.42667 11.1993 3.54601 11.0213 3.70401 10.864L10.864 3.704C11.0253 3.54267 11.2043 3.42267 11.401 3.344C11.5977 3.26533 11.7973 3.22533 12 3.224C12.2027 3.22267 12.4033 3.262 12.602 3.342C12.8007 3.422 12.979 3.542 13.137 3.702L20.297 10.862C20.4577 11.02 20.5777 11.1983 20.657 11.397C20.7357 11.5957 20.775 11.7963 20.775 11.999C20.775 12.2017 20.7357 12.4013 20.657 12.598C20.5783 12.7947 20.4583 12.974 20.297 13.136L13.137 20.296C12.979 20.4533 12.8007 20.5723 12.602 20.653C12.4033 20.7337 12.2027 20.775 12 20.775ZM12.442 19.582L19.582 12.442C19.6853 12.3393 19.737 12.1917 19.737 11.999C19.737 11.8063 19.6857 11.659 19.583 11.557L12.443 4.417C12.3403 4.31367 12.1927 4.262 12 4.262C11.8073 4.262 11.66 4.31333 11.558 4.416L4.41801 11.556C4.31467 11.6593 4.26301 11.807 4.26301 11.999C4.26301 12.191 4.31434 12.3383 4.41701 12.441L11.557 19.581C11.6603 19.6843 11.808 19.736 12 19.736C12.192 19.736 12.3393 19.6847 12.442 19.582ZM11.5 13.172H12.5V7.942H11.5V13.172ZM12 15.402C12.168 15.402 12.3127 15.3417 12.434 15.221C12.5553 15.1003 12.616 14.956 12.616 14.788C12.616 14.62 12.5553 14.4753 12.434 14.354C12.3127 14.2327 12.168 14.172 12 14.172C11.832 14.172 11.6873 14.2327 11.566 14.354C11.4447 14.4753 11.384 14.62 11.384 14.788C11.384 14.956 11.4447 15.1003 11.566 15.221C11.6873 15.3417 11.832 15.4013 12 15.402Z" fill="#BA2D0B"/>
</svg>
