<svg width="21" height="20" viewBox="0 0 21 20" fill="none" xmlns="http://www.w3.org/2000/svg">
<path d="M9.875 15C9.875 15.1658 9.94085 15.3247 10.0581 15.4419C10.1753 15.5592 10.3342 15.625 10.5 15.625C10.6658 15.625 10.8247 15.5592 10.9419 15.4419C11.0592 15.3247 11.125 15.1658 11.125 15V12.5C11.125 12.3342 11.0592 12.1753 10.9419 12.0581C10.8247 11.9408 10.6658 11.875 10.5 11.875C10.3342 11.875 10.1753 11.9408 10.0581 12.0581C9.94085 12.1753 9.875 12.3342 9.875 12.5V15Z" fill="#BA2D0B"/>
<path fill-rule="evenodd" clip-rule="evenodd" d="M10.5 1.04166C9.90996 1.04166 9.37413 1.21082 8.79163 1.49332C8.22996 1.76666 7.57996 2.16999 6.76913 2.67332L5.04663 3.74249C4.27996 4.21916 3.66413 4.60082 3.19079 4.96332C2.69996 5.33832 2.32329 5.72166 2.05079 6.21916C1.77913 6.71499 1.65746 7.24332 1.59829 7.86749C1.54163 8.47166 1.54163 9.21166 1.54163 10.1392V11.4833C1.54163 13.07 1.54163 14.3225 1.66913 15.3017C1.79913 16.3058 2.07413 17.1167 2.69413 17.7575C3.31663 18.4017 4.10829 18.69 5.08996 18.8258C6.03996 18.9583 7.25496 18.9583 8.78496 18.9583H12.215C13.745 18.9583 14.96 18.9583 15.91 18.8258C16.8908 18.69 17.6833 18.4017 18.3066 17.7575C18.9258 17.1167 19.2008 16.3058 19.3316 15.3017C19.4583 14.3225 19.4583 13.07 19.4583 11.4833V10.1392C19.4583 9.21166 19.4583 8.47249 19.4016 7.86749C19.3433 7.24249 19.2208 6.71499 18.9491 6.21916C18.6766 5.72166 18.2991 5.33916 17.8091 4.96332C17.3358 4.59999 16.7208 4.21916 15.9533 3.74249L14.2308 2.67332C13.42 2.16999 12.77 1.76666 12.2075 1.49332C11.6266 1.20999 11.0908 1.04166 10.5 1.04166ZM7.39996 3.75332C8.24579 3.22832 8.84163 2.85999 9.33913 2.61749C9.82329 2.38166 10.1666 2.29166 10.5 2.29166C10.8333 2.29166 11.1766 2.38166 11.6608 2.61749C12.1591 2.85916 12.7541 3.22832 13.6 3.75332L15.2666 4.78749C16.0675 5.28499 16.63 5.63416 17.05 5.95582C17.4575 6.26832 17.6916 6.52582 17.8525 6.81916C18.0133 7.11332 18.1075 7.45749 18.1566 7.98416C18.2075 8.52416 18.2083 9.20499 18.2083 10.17V11.4375C18.2083 13.0792 18.2066 14.2508 18.0916 15.14C17.9783 16.0133 17.7641 16.52 17.4083 16.8892C17.0541 17.255 16.5725 17.4725 15.7383 17.5883C14.8833 17.7067 13.7558 17.7083 12.1666 17.7083H8.83329C7.24329 17.7083 6.11663 17.7067 5.26163 17.5883C4.42746 17.4717 3.94579 17.255 3.59246 16.8883C3.23579 16.52 3.02163 16.0133 2.90913 15.14C2.79246 14.2508 2.79163 13.08 2.79163 11.4375V10.17C2.79163 9.20499 2.79163 8.52416 2.84329 7.98416C2.89246 7.45749 2.98663 7.11332 3.14746 6.81916C3.30829 6.52582 3.54246 6.26832 3.95079 5.95582C4.36996 5.63416 4.93246 5.28499 5.73329 4.78749L7.39996 3.75332Z" fill="#BA2D0B"/>
</svg>
