<svg width="16" height="16" viewBox="0 0 16 16" fill="none" xmlns="http://www.w3.org/2000/svg">
<g clip-path="url(#clip0_55_187)">
<path d="M8 1.33334C6.93913 1.33334 5.92172 1.75477 5.17157 2.50492C4.42143 3.25506 4 4.27248 4 5.33334C4 6.27934 4.20133 6.89868 4.75 7.58334L8 11.3333L11.25 7.58334C11.7987 6.89868 12 6.27934 12 5.33334C12 4.27248 11.5786 3.25506 10.8284 2.50492C10.0783 1.75477 9.06087 1.33334 8 1.33334Z" stroke="#BA2D0B" stroke-linecap="round" stroke-linejoin="round"/>
<path d="M3.33333 10.0953C2.09933 10.58 1.33333 11.254 1.33333 12C1.33333 13.4733 4.318 14.6667 8 14.6667C11.682 14.6667 14.6667 13.4733 14.6667 12C14.6667 11.254 13.9007 10.58 12.6667 10.0953" stroke="#BA2D0B" stroke-linecap="round" stroke-linejoin="round"/>
<path d="M7.99999 6.00002C8.36818 6.00002 8.66666 5.70154 8.66666 5.33335C8.66666 4.96516 8.36818 4.66669 7.99999 4.66669C7.63181 4.66669 7.33333 4.96516 7.33333 5.33335C7.33333 5.70154 7.63181 6.00002 7.99999 6.00002Z" stroke="#BA2D0B" stroke-linecap="round" stroke-linejoin="round"/>
</g>
<defs>
<clipPath id="clip0_55_187">
<rect width="16" height="16" fill="white"/>
</clipPath>
</defs>
</svg>
