<svg width="25" height="24" viewBox="0 0 25 24" fill="none" xmlns="http://www.w3.org/2000/svg">
<path fill-rule="evenodd" clip-rule="evenodd" d="M17.0416 3.75C16.5144 3.74973 15.9944 3.87301 15.5233 4.10994C15.0523 4.34687 14.6433 4.69087 14.3292 5.11437C14.0151 5.53786 13.8046 6.02905 13.7145 6.54858C13.6245 7.0681 13.6574 7.60149 13.8106 8.106L14.0056 8.751L13.5301 9.228L4.14914 18.6075C3.96217 18.7945 3.85712 19.0481 3.85712 19.3125C3.85712 19.5769 3.96217 19.8305 4.14914 20.0175C4.33612 20.2045 4.58972 20.3095 4.85414 20.3095C5.11857 20.3095 5.37217 20.2045 5.55914 20.0175L14.9386 10.635L15.4156 10.158L16.0606 10.353C16.6873 10.5439 17.356 10.5483 17.9851 10.3656C18.6142 10.1829 19.1766 9.82113 19.6036 9.32431C20.0306 8.8275 20.3038 8.21715 20.3898 7.56772C20.4759 6.9183 20.371 6.25787 20.0881 5.667L17.8381 7.9185C17.7344 8.026 17.6103 8.11176 17.4731 8.17078C17.3359 8.22981 17.1883 8.26091 17.0389 8.26228C16.8895 8.26365 16.7414 8.23525 16.6031 8.17875C16.4648 8.12225 16.3391 8.03877 16.2335 7.9332C16.1278 7.82762 16.0442 7.70205 15.9876 7.56382C15.9309 7.42559 15.9024 7.27746 15.9036 7.12808C15.9048 6.97871 15.9358 6.83107 15.9947 6.69379C16.0536 6.55651 16.1392 6.43233 16.2466 6.3285L18.4966 4.0785C18.0425 3.86085 17.5452 3.74957 17.0416 3.75ZM11.4166 7.125C11.4167 5.97165 11.7714 4.8462 12.4325 3.90114C13.0936 2.95608 14.0293 2.23708 15.1127 1.84157C16.1961 1.44606 17.3749 1.39314 18.4894 1.69C19.6039 1.98685 20.6002 2.61912 21.3434 3.50115C22.0865 4.38318 22.5405 5.47232 22.644 6.62103C22.7474 7.76974 22.4952 8.92248 21.9216 9.92307C21.348 10.9237 20.4807 11.7237 19.4371 12.2149C18.3936 12.7061 17.2243 12.8646 16.0876 12.669L15.2581 13.5L16.6666 14.91L17.3716 14.205L18.1666 13.41L18.9616 14.205L21.7741 17.0175C22.0831 17.3172 22.3294 17.6753 22.4987 18.0711C22.668 18.4669 22.7569 18.8923 22.7602 19.3228C22.7635 19.7532 22.6811 20.18 22.5179 20.5783C22.3547 20.9766 22.1139 21.3385 21.8095 21.6429C21.5052 21.9473 21.1433 22.1881 20.745 22.3513C20.3467 22.5145 19.9199 22.5968 19.4894 22.5935C19.059 22.5902 18.6335 22.5014 18.2377 22.3321C17.842 22.1628 17.4838 21.9165 17.1841 21.6075L14.3716 18.795L13.5766 18L14.3716 17.205L15.0766 16.5L13.6666 15.09L7.14914 21.6075C6.84946 21.9165 6.49131 22.1628 6.09555 22.3321C5.69978 22.5014 5.2743 22.5902 4.84386 22.5935C4.41342 22.5968 3.98663 22.5145 3.58832 22.3513C3.19001 22.1881 2.82813 21.9473 2.52376 21.6429C2.21939 21.3385 1.97859 20.9766 1.81539 20.5783C1.65218 20.18 1.56983 19.7532 1.57312 19.3228C1.57642 18.8923 1.66529 18.4669 1.83457 18.0711C2.00384 17.6753 2.25015 17.3172 2.55914 17.0175L9.07514 10.5L5.41664 6.84L4.49114 7.7655L3.73064 6.624L2.23064 4.374L1.71914 3.606L2.37164 2.955L3.12164 2.205L3.77264 1.5525L4.54064 2.064L6.79064 3.564L7.93214 4.3245L7.00814 5.25L10.6666 8.91L11.4976 8.079C11.4453 7.76367 11.4182 7.44465 11.4166 7.125ZM18.1666 16.59L20.1841 18.6075C20.3711 18.7945 20.4762 19.0481 20.4762 19.3125C20.4762 19.5769 20.3711 19.8305 20.1841 20.0175C19.9972 20.2045 19.7436 20.3095 19.4791 20.3095C19.2147 20.3095 18.9611 20.2045 18.7741 20.0175L16.7581 18L18.1666 16.59Z" fill="#BA2D0B"/>
</svg>
