<svg width="21" height="20" viewBox="0 0 21 20" fill="none" xmlns="http://www.w3.org/2000/svg">
<g clip-path="url(#clip0_172_195)">
<path d="M5.16663 0V6.66667M15.8333 0V6.66667M4.49996 10H8.49996M16.5 10H12.5M4.49996 14H8.49996M12.5 14H16.5M2.49996 3.33333H18.5C18.8536 3.33333 19.1927 3.47381 19.4428 3.72386C19.6928 3.97391 19.8333 4.31304 19.8333 4.66667V18C19.8333 18.3536 19.6928 18.6928 19.4428 18.9428C19.1927 19.1929 18.8536 19.3333 18.5 19.3333H2.49996C2.14634 19.3333 1.8072 19.1929 1.55715 18.9428C1.3071 18.6928 1.16663 18.3536 1.16663 18V4.66667C1.16663 4.31304 1.3071 3.97391 1.55715 3.72386C1.8072 3.47381 2.14634 3.33333 2.49996 3.33333Z" stroke="#A3A3A3" stroke-width="1.5"/>
</g>
<defs>
<clipPath id="clip0_172_195">
<rect width="20" height="20" fill="white" transform="translate(0.5)"/>
</clipPath>
</defs>
</svg>
