<svg width="21" height="20" viewBox="0 0 21 20" fill="none" xmlns="http://www.w3.org/2000/svg">
<path d="M10.5 0.833344L18.4167 5.41668V14.5833L10.5 19.1667L2.58337 14.5833V5.41668L10.5 0.833344ZM10.5 2.75918L4.25004 6.37751V13.6225L10.5 17.2408L16.75 13.6225V6.37751L10.5 2.75918ZM10.5 13.3333C9.61599 13.3333 8.76814 12.9822 8.14302 12.357C7.5179 11.7319 7.16671 10.8841 7.16671 10C7.16671 9.11596 7.5179 8.26811 8.14302 7.64299C8.76814 7.01787 9.61599 6.66668 10.5 6.66668C11.3841 6.66668 12.2319 7.01787 12.8571 7.64299C13.4822 8.26811 13.8334 9.11596 13.8334 10C13.8334 10.8841 13.4822 11.7319 12.8571 12.357C12.2319 12.9822 11.3841 13.3333 10.5 13.3333ZM10.5 11.6667C10.9421 11.6667 11.366 11.4911 11.6786 11.1785C11.9911 10.866 12.1667 10.442 12.1667 10C12.1667 9.55798 11.9911 9.13406 11.6786 8.8215C11.366 8.50894 10.9421 8.33334 10.5 8.33334C10.058 8.33334 9.63409 8.50894 9.32153 8.8215C9.00897 9.13406 8.83337 9.55798 8.83337 10C8.83337 10.442 9.00897 10.866 9.32153 11.1785C9.63409 11.4911 10.058 11.6667 10.5 11.6667Z" fill="#A3A3A3"/>
</svg>
